PathFileType	4	(X/Y/Z)	 s10c0402.trc
DataRate	CameraRate	NumFrames	NumMarkers	Units	OrigDataRate	OrigDataStartFrame	OrigNumFrames
200	200	4	49	mm	200	251	2000
Frame#	Time	racr			lacr			c7			jug			rlel			rdr			llel			ldr			s2			lic			ric			lasi			rasi			rpsi			lpsi			rgt			lgt			rth1			rth2			rth3			rth4			rlfc			rmfc			rsh1			rsh2			rsh3			rsh4			rlmal			rmmal			rcal			rtoe			rmt5			lth1			lth2			lth4			lth3			llfc			lmfc			llmal			lcal			lmt5			lsh1			lsh2			lsh3			lsh4			ltoe			SBIKE			LBIKE			RBIKE			
		X1	Y1	Z1	X2	Y2	Z2	X3	Y3	Z3	X4	Y4	Z4	X5	Y5	Z5	X6	Y6	Z6	X7	Y7	Z7	X8	Y8	Z8	X9	Y9	Z9	X10	Y10	Z10	X11	Y11	Z11	X12	Y12	Z12	X13	Y13	Z13	X14	Y14	Z14	X15	Y15	Z15	X16	Y16	Z16	X17	Y17	Z17	X18	Y18	Z18	X19	Y19	Z19	X20	Y20	Z20	X21	Y21	Z21	X22	Y22	Z22	X23	Y23	Z23	X24	Y24	Z24	X25	Y25	Z25	X26	Y26	Z26	X27	Y27	Z27	X28	Y28	Z28	X29	Y29	Z29	X30	Y30	Z30	X31	Y31	Z31	X32	Y32	Z32	X33	Y33	Z33	X34	Y34	Z34	X35	Y35	Z35	X36	Y36	Z36	X37	Y37	Z37	X38	Y38	Z38	X39	Y39	Z39	X40	Y40	Z40	X41	Y41	Z41	X42	Y42	Z42	X43	Y43	Z43	X44	Y44	Z44	X45	Y45	Z45	X46	Y46	Z46	X47	Y47	Z47	X48	Y48	Z48	X49	Y49	Z49	
251	1.2550	631.029841	1219.402628	56.419532	664.044153	1308.519052	-261.450647	635.342231	1325.982130	-103.711328	603.549605	1183.783362	-124.326209	448.004351	1014.515242	93.314147	610.305814	923.097448	-3.455356	532.124472	1096.443443	-408.833383	645.539175	911.068382	-384.082497	83.622536	1233.253658	-162.051452	248.564738	1212.403703	-316.823838	260.405098	1183.139636	-30.992554	238.421460	1122.357315	-294.946374	236.665214	1103.779112	-47.074050	142.164347	1271.677570	-106.206163	150.236405	1283.709463	-218.235546	141.228131	1113.429101	17.464446	101.576463	1111.590847	-363.426543	204.467680	980.963597	28.289398	271.482396	926.023243	7.836696	299.955731	846.414256	-6.455185	299.929201	949.552018	1.750633	366.447960	760.390044	-32.451652	346.740036	757.684164	-146.040266	307.933539	658.923729	-4.550474	300.677540	571.943120	-22.700227	252.923483	500.201173	-27.505693	327.800620	567.582248	-50.041409	213.348535	404.165896	-47.265632	234.640470	424.270186	-130.675817	161.354228	373.068135	-97.170656	403.010802	381.591895	-77.286257	321.251001	344.889437	-19.381905	145.598850	988.318484	-391.051915	198.060351	919.411133	-383.005204	230.085156	933.214630	-371.651745	209.357588	831.679085	-384.782373	238.542860	725.064767	-381.080525	239.505621	705.443506	-265.060946	-19.132300	436.030588	-383.474088	-76.298325	437.608029	-337.262034	27.841841	292.194834	-395.904242	136.849902	646.718612	-411.042920	108.732361	564.174242	-398.898761	40.582218	506.804923	-395.974774	134.238741	549.401567	-374.811710	106.149717	259.473036	-337.894291	-167.478272	824.052317	-218.100329	-78.115272	81.652065	-423.346996	-102.591805	80.464032	-24.368860	
252	1.2600	630.584772	1219.114023	56.846211	664.510767	1308.130826	-261.235755	635.600146	1325.744998	-103.431074	603.819000	1183.602864	-123.941722	447.342042	1014.306740	93.367212	610.145265	923.425640	-3.303859	532.112772	1096.460333	-408.937500	645.551797	911.057806	-384.191960	84.380152	1232.849684	-162.333089	249.279599	1212.351188	-317.169916	260.910559	1182.329449	-31.213391	239.181512	1122.210539	-295.404539	237.506936	1102.873206	-47.347645	142.587099	1270.951685	-106.266165	150.791253	1283.268998	-218.306149	142.180432	1111.951999	16.879291	102.803659	1111.615527	-363.986283	205.177647	979.618913	27.668505	272.150806	924.519630	7.248772	300.435781	844.891901	-7.095027	300.539000	948.016173	0.815903	366.584373	758.643676	-33.049829	347.313429	755.995582	-146.745179	308.048590	657.183578	-4.991620	300.926245	570.410678	-23.074484	253.120739	498.455386	-27.727959	327.963503	565.861616	-50.437611	213.553482	402.465125	-47.316143	234.997009	422.430990	-130.796125	161.627914	371.168323	-97.282069	403.337713	379.694071	-77.243171	321.493938	343.076048	-19.358659	147.367616	988.315075	-391.594761	200.050664	919.615128	-383.416084	232.057370	933.568590	-372.155715	211.671723	831.989399	-385.088063	241.125541	725.104718	-381.294785	242.451538	705.655699	-265.378944	-18.372467	437.937415	-383.432378	-75.579579	439.909162	-337.270041	27.806475	293.908784	-395.850526	139.257221	647.416129	-411.193258	110.503872	565.271536	-399.131366	41.872717	508.330772	-396.071769	135.911965	550.239297	-375.039057	105.853346	260.593952	-337.971484	-167.418492	823.965053	-218.220178	-77.959076	81.568355	-423.224542	-102.595381	80.463258	-24.368730	
253	1.2650	630.058860	1218.829008	57.220823	664.945398	1307.789412	-261.067641	635.796015	1325.618256	-103.112299	604.055643	1183.401891	-123.585642	446.690088	1014.164436	93.441441	609.859406	923.608913	-3.177292	532.107239	1096.464708	-409.103868	645.619799	911.317126	-384.698131	85.096393	1232.062786	-162.590545	249.885324	1212.295411	-317.439015	261.388030	1181.471163	-31.467516	239.815607	1122.042638	-295.822666	238.313922	1102.026854	-47.583668	143.201845	1269.848532	-106.626763	151.258236	1282.717261	-218.261168	142.980846	1110.526300	16.322501	103.983719	1111.580277	-364.622836	205.883240	978.197459	27.057422	272.738285	923.003529	6.604273	300.814879	843.340559	-7.719231	301.059115	946.446185	0.160033	366.643934	757.039861	-33.563603	347.526513	754.432915	-147.318072	308.095785	655.588982	-5.453992	301.128729	568.652571	-23.409843	253.374197	496.694484	-27.971119	328.137339	564.164120	-50.789182	213.750157	400.824234	-47.434668	235.314489	420.570198	-130.969574	161.904779	369.639332	-97.228748	403.655701	377.750234	-77.209469	321.746846	341.199488	-19.370115	149.097840	988.178420	-392.120570	202.024039	919.700958	-383.892470	233.977138	933.728926	-372.713639	214.005879	832.150194	-385.396200	243.769045	725.222874	-381.644992	245.781431	705.336580	-265.994534	-17.576848	439.876305	-383.437219	-74.738372	442.184735	-337.192747	27.775001	295.600335	-395.831682	141.626777	648.230998	-411.385930	112.301141	566.225673	-399.228264	43.226196	509.779897	-396.111062	137.541342	551.022137	-375.129566	105.671481	261.741126	-337.935808	-167.361733	823.921488	-218.318813	-77.833202	81.889816	-423.530168	-102.586373	80.464149	-24.360035	
254	1.2700	629.580189	1218.544260	57.630230	665.317295	1307.408969	-260.834144	635.974801	1325.387046	-102.909226	603.936123	1182.823073	-122.326606	446.040442	1013.874157	93.523893	609.544191	923.818895	-3.082893	532.093564	1096.423252	-409.289299	645.385225	911.427198	-385.243086	85.635507	1231.353415	-162.737856	250.566465	1212.204789	-317.893098	261.818954	1180.765298	-31.771949	240.562407	1121.816412	-296.351465	238.838898	1100.260177	-50.184114	143.591418	1269.058118	-106.887964	151.673331	1282.180558	-218.368258	143.796337	1109.014975	15.720445	105.187097	1111.506414	-365.301325	206.479226	976.936886	26.419249	273.155331	921.571435	6.023184	301.095551	841.807555	-8.381051	301.596181	944.962705	-0.518347	366.702863	755.406562	-34.139259	345.389130	752.377302	-147.371374	308.114441	653.993979	-5.845645	301.258538	566.920333	-23.752283	253.597841	495.079615	-28.228296	328.271306	562.519922	-51.111739	214.030977	399.180171	-47.497322	235.670189	418.825412	-131.064820	162.174343	367.995961	-97.325082	403.942345	375.756666	-77.169513	321.944969	339.357442	-19.368603	150.798668	988.048336	-392.772669	203.989232	919.723024	-384.420185	235.867693	933.846370	-373.343530	216.282942	832.140770	-385.711332	246.500974	725.243418	-382.106796	249.006027	705.780900	-266.149184	-16.694788	441.916501	-383.448755	-73.885116	444.506579	-337.096966	27.774966	297.273364	-395.800181	144.104832	648.999836	-411.478272	114.089504	567.132372	-399.224775	44.632783	511.383756	-396.118605	139.354756	551.716894	-375.358742	105.471160	263.101666	-338.002151	-167.218186	823.995149	-218.017138	-77.821743	81.909753	-423.530194	-102.587270	80.464302	-24.365979	
